/* XPM */
static char *d183ae1a3c1e4353c141e41644f3f6e5gvsBFGW69HGav0yf[] = {
/* columns rows colors chars-per-pixel */
"64 64 94 2 ",
"   c None",
".  c #373737",
"X  c #383737",
"o  c #3A3837",
"O  c #373838",
"+  c #3C3A38",
"@  c #443C39",
"#  c #4A3E39",
"$  c #3B433D",
"%  c #4D413B",
"&  c #54433B",
"*  c #5B453B",
"=  c #5E493F",
"-  c #62473B",
";  c #65493C",
":  c #6D4B3C",
">  c #3E4B42",
",  c #415346",
"<  c #425748",
"1  c #445B4B",
"2  c #654D40",
"3  c #6A4F41",
"4  c #6E5142",
"5  c #745343",
"6  c #7C5745",
"7  c #795644",
"8  c #7F5845",
"9  c #7F5945",
"0  c #7E5845",
"q  c #45614D",
"w  c #46624E",
"e  c #47644F",
"r  c #476751",
"t  c #486751",
"y  c #496C53",
"u  c #4A6E54",
"i  c #4C7357",
"p  c #4D7658",
"a  c #815945",
"s  c #815A45",
"d  c #825A45",
"f  c #835A45",
"g  c #815A46",
"h  c #825A46",
"j  c #835B46",
"k  c #845B46",
"l  c #845B46",
"z  c #528560",
"x  c #538661",
"c  c #538762",
"v  c #538862",
"b  c #538863",
"n  c #548963",
"m  c #548A64",
"M  c #548B64",
"N  c #568F66",
"B  c #569066",
"V  c #579368",
"C  c #579468",
"Z  c #58976A",
"A  c #59976A",
"S  c #58976B",
"D  c #59986B",
"F  c #5A9C6D",
"G  c #5B9D6E",
"H  c #5B9E6E",
"J  c #5CA06F",
"K  c #5CA170",
"L  c #5DA371",
"P  c #5EA672",
"I  c #5EA773",
"U  c #5EA974",
"Y  c #5FA974",
"T  c #60AC76",
"R  c #60AD76",
"E  c #60AE77",
"W  c #61AF77",
"Q  c #61B078",
"!  c #61B178",
"~  c #62B279",
"^  c #62B379",
"/  c #62B47A",
"(  c #63B57A",
")  c #63B67A",
"_  c #63B67B",
"`  c #64B87C",
"'  c #65BB7E",
"]  c #65BC7E",
"[  c #66BF80",
"{  c #68C382",
"}  c #68C482",
"|  c #68C583",
" . c #69C683",
".. c #69C784",
/* pixels */
"    . . . . . . . . . . . . . . . . . . . . . . . . . . . . . . . . . . . . . . . . . . . . . . . . . . . . . . . . . . . .     ",
"  . . . . . . . . . . . . . . . . . . . . . . . . . . . . . . . . . . . . . . . . . . . . . . . . . . . . . . . . . . . . . .   ",
". . $ D ^ ^ ^ ^ ^ ^ ^ ^ ^ ^ ^ ^ ^ ^ ^ ^ ^ ^ ^ ^ ^ ^ ^ ^ ^ ^ ^ ^ ^ ^ ^ ^ ^ ^ ^ ^ ^ ^ ^ ^ ^ ^ ^ ^ ^ ^ ^ ^ ^ ^ ^ ^ ^ ^ ^ ^ A $ . . ",
". . D ....................................................................................................................A . . ",
". . ^ ....................................................................................................................^ . . ",
". . ^ ....................................................................................................................^ . . ",
". . ^ ....................................................................................................................^ . . ",
". . ^ ....................................................................................................................^ . . ",
". . ^ .................. .L c M E ........................ .I v M Y ..........................Y n v I  ...................^ . . ",
". . ^ ................I > . . . . 1 ) ..................E , . . . . < ^ ..................^ < . . . . , E ................^ . . ",
". . ^ ..............Y + . o # @ X . > ' ..............E $ . X @ # . . $ ) ..............) $ . X @ # X . $ E ..............^ . . ",
". . ^ ............ ., . @ ; : : - + . y ..............1 . @ ; : : ; @ . q ..............e . + ; : : ; @ . < ..............^ . . ",
". . ^ ............Y . X ; : : : : * . o [ ..........^ . . ; : : : : - . O ' ..........' O . - : : : : ; X . E ............^ . . ",
". . ^ ............V . @ : : : : : : X . I ..........G . + : : : : : : + . G ..........I . o : : : : : : @ . C ............^ . . ",
". . ^ ............M . # : : : : : : + . L ..........A . @ : : : : : : @ . A ..........J . + : : : : : : # . M ............^ . . ",
". . G ............p . % : : : : : : @ . B ..........c . # : : : : : : # . c ..........N . @ : : : : : : % . i ............D . . ",
". . 1  .........' $ . * : : : : : : # . 1  ....... .> . & : : : : : : & . <  ....... .< . # : : : : : : * . o ^ ........{ > . . ",
". . . q ^ .. .L > . @ : : : : : : : - . . u ] ..) q . X ; : : : : : : ; X . t ' ..' r . X ; : : : : : : : @ . $ G  ...E < . . . ",
". . . . . $ + . . + ; : : : : : : : : & . . o > O . X * : : : : : : : : * . . O > o . . * : : : : : : : : ; + . . $ $ . . . . . ",
". . * # X . . X # : : : : : : : : : : : * + . . . @ * : : : : : : : : : : * @ . . . @ * : : : : : : : : : : : % X . . X # * . . ",
". . ; : : - - ; : : : : : : : : : : : : : : ; - ; : : : : : : : : : : : : : : ; - ; : : : : : : : : : : : : : : ; - - : : ; . . ",
". . ; : : : : : : : : : : : : : : : : : : : : : : : : : : : : : : : : : : : : : : : : : : : : : : : : : : : : : : : : : : ; . . ",
". . ; : : : : : : : : : : : : : : : : : : : : : : : : : : : : : : : : : : : : : : : : : : : : : : : : : : : : : : : : : : ; . . ",
". . ; : : : : : : : : : : : : : : : : : : : : : : : : : : : : : : : : : : : : : : : : : : : : : : : : : : : : : : : : : : ; . . ",
". . ; : : : : : - * & & & * : : : : : : : : : : : : : : : * * & & * * ; : : : : : : : : : : : : : ; * & & & * - : : : : : ; . . ",
". . ; : : * # X . . . . . . . @ & : : : : : : : : : * # . . . . . . . X # * ; : : : : : : : ; & @ . . . . . . . X # * : : ; . . ",
". . & # X . . . o # % % # + . . . X # & & * & & # X . . . + # % % # + . . . X # & & * & & @ X . . . @ # % % # o . . . X # & . . ",
". . . . . + & 4 j k k k k k 5 = @ . . . . . . . . . + * 5 j k j k k j 5 * + . . . . . . . . . @ = 7 k k k k k j 4 & + . . . . . ",
". . % = 4 j k k k k k k k k k k j 5 = & % # # % = 4 j k k k k k k k k k k j 4 = & # # % & ; 5 k k k k k k k k k k k j 3 = % . . ",
". . 7 k k k k k k k k k k k k k k j k k k k k k k k k k k k k k k k k k k k k k k k k k k k k k k k k k k k k k k k k k k 7 . . ",
". . 7 k k k k k k k k k k k k k k k k k k k k k k k k k k k j j k k k k k k k k k k k k k k k k k k k k k k k k k k k k k 7 . . ",
". . 7 k k k k k k k k k k k k k k k k k k k k k k k k k 4 # X X % 5 k k k k k k k k k k k k k k k k k k k k k k k k k k k 7 . . ",
". . 7 k k k k k k k k k k k k k k k k k k k k k k k k 3 X . . . . X 5 k k k k k k k k k k k k k k k k k k k k k k k k k k 7 . . ",
". + j k k k k k k k k k k k k k k k k k k k k k k k j + . # ; - # . # k k k k k k k k k k k k k k k k k k k k k k k k k k 7 . . ",
"  j k k k k k k k k 5 & # # = j k k k k k k k k k k 5 . + : : : : . . 7 k k k k k k k k k k k j ; % # # = 7 k k k k k k k 7 . . ",
"  k k k k k k k k 4 o . . . . # 9 k k k k k k k k k 4 . + : : : ; X . 7 k k k k k k k k k k 5 @ . . . . . o 2 k k k k k k 7 . . ",
"  * j k k k k k 9 + . # * & + . & k k k k k k k k k 6 o . * : : & . + j k k k k k k k k k 6 + . X & * * @ . X 4 k k k k k 7 . . ",
". . 7 k k k k k 3 . + : : : * . + j k k k k k k k k k & . X # @ . . = k k k k k k k k k k * . + ; : : : : # . + j k k k k 7 . . ",
". . 7 k k k k k 2 . # : : : ; . X j k k k k k k k k k j & . . . X * j k k k k k k k k k j o . * : : : : : : X . 4 k k k k 7 . . ",
". . 7 k k k k k 4 . X ; : : & . @ k k k k k k k k k k k k 5 2 2 7 k k k k k k k k k k k 7 . X : : : : : : : # . ; k k k k 7 . . ",
". . 7 k k k k k j @ . + & # X . ; k k k k k k k k k k k k k k k k k k k k k k k k k k k 7 . X ; : : : : : : # . ; k k k k 7 . . ",
". . 7 k k k k k k 5 @ . . . . & j k k k k k k k k k k k k k k k k k k k k k k k k k k k j o . * : : : : : ; + . 4 k k k k 7 . . ",
". . 7 k k k k k k k 9 2 & * 5 k k k k k k k k k k k k k k k k k k k k k k k j j k k k k k & . + ; : : : : # . @ j k k k k 7 . . ",
". . 7 k k k k k k k k k k k k k k k k k k k k k k k k k k k k k k k k k k k k k k k k k k 6 + . + & * & @ . X 3 k k k k k 7 . . ",
". . 7 k k k k k k k k k k k k k k k k k j 7 7 j k k k k k k k k k k k k k k k k k k k k k k 5 @ . . . . . X 3 k k k k k k 7 . . ",
". . 7 k k k k k k k k k k k k k k k 7 & o . . + * 9 k k k k k k k k k k k k k k k k k k k k k j ; % # % = 9 k k k k k k k 7 . . ",
". . 7 k k k k k k k k k k k k k k 5 + . . X X . . @ 9 k k k k k k k k k k k k j j k k k k k k k k k k k k k k k k k k k k 7 . . ",
". . 7 k k k k k k k k k k k k k 9 + . @ - : ; * + . # j k k k k k k k k j ; # X . @ = j k k k k k k k k k k k k k k k k k 7 . . ",
". . 7 k k k k k k k k k k k k k * . @ ; : : : : ; X . 4 k k k k k k k 6 # . . . . . . # 6 k k k k k k k k k k k k k k k k 7 . . ",
". . 7 k k k k k k k k k k k k k # . * : : : : : : # . & k k k k k k j # . X & ; ; & + . # j k k k k k k k k k k k k k k k 7 . . ",
". . 7 k k k k k k k k k k k k k o . ; : : : : : : & . % k k k k k k 3 . X ; : : : : ; X . 2 k k k k k k k k k k k k k k k 7 . . ",
". . 7 k k k k k k k k k k k k k + . * : : : : : : & . & k k k k k k & . & : : : : : : & . % k k k k k k k k k k k k k k k 7 . . ",
". . 7 k k k k k k k k k k k k k & . # : : : : : : + . 2 k k k k k k # . * : : : : : : * . # k k k k k k k k k k k k k k k 7 . . ",
". . 7 k k k k k k k k k k k k k 5 o . & : : : : # . + j k k k k k k # . * : : : : : : * . % k k k k k k k k k k k k k k k 7 . . ",
". . 7 k k k k k k k k k k k k k k = . . + # # X . X 5 k k k k k k k * . # : : : : : : # . * k k k k k k k k k k k k k k k 7 . . ",
". . 7 k k k k k k k k k k k k k k k 2 o . . . . # 5 k k k k k k k k 5 X . & : : : : & . X 7 k k k k k k k k k k k k k k k 7 . . ",
". . 7 k k k k k k k k k k k k k k k k j 4 ; ; 5 j k k k k k k k k k k = . . @ & & @ . . = k k k k k k k k k k k k k k k k 7 . . ",
". . 7 k k k k k k k k k k k k k k k k k k k k k k k k k k k k k k k k j 2 X . . . . X ; k k k k k k k k k k k k k k k k k 7 . . ",
". . 7 k k k k k k k k k k k k k k k k k k k k k k k k k k k k k k k k k k 9 2 & & 2 9 k k k k k k k k k k k k k k k k k k 7 . . ",
". . 7 k k k k k k k k k k k k k k k k k k k k k k k j j k k k k k k k k k k k k k k k k k k k k k k k k k k k k k k k k k 7 . . ",
". . 3 k k k k k k k k k k k k k k k k k k k k k k k k k k k k k k k k k k k k k k k k k k k k k k k k k k k k k k k k k k 3 . . ",
". . + 3 7 7 7 7 7 7 7 7 7 7 7 7 7 7 7 7 7 7 7 7 7 7 7 7 7 7 7 7 7 7 7 7 7 7 7 7 7 7 7 7 7 7 7 7 7 7 7 7 7 7 7 7 7 7 7 7 3 + . . ",
"  . . . . . . . . . . . . . . . . . . . . . . . . . . . . . . . . . . . . . . . . . . . . . . . . . . . . . . . . . . . . . .   ",
"    . . . . . . . . . . . . . . . . . . . . . . . . . . . . . . . . . . . . . . . . . . . . . . . . . . . . . . . . . . . .     "
};
