/* XPM */
static char *_c2e2647162f49758708fce222dfcb10FFoKlU4mHbvMKcHW[] = {
/* columns rows colors chars-per-pixel */
"64 64 253 2 ",
"   c #00001E",
".  c #08041C",
"X  c #150B1E",
"o  c #1A121E",
"O  c #24141F",
"+  c #3F261F",
"@  c #030322",
"#  c #0B0222",
"$  c #080A28",
"%  c #120224",
"&  c #190626",
"*  c #161328",
"=  c #0C0D37",
"-  c #150635",
";  c #041539",
":  c #1A1936",
">  c #250629",
",  c #251525",
"<  c #260637",
"1  c #360435",
"2  c #361630",
"3  c #1E2335",
"4  c #2E2331",
"5  c #4D142E",
"6  c #59192C",
"7  c #460337",
"8  c #580B3A",
"9  c #4A1535",
"0  c #502F2B",
"q  c #702433",
"w  c #6D4F1E",
"e  c #5A4321",
"r  c #725230",
"t  c #180E45",
"y  c #18174A",
"u  c #101A4D",
"i  c #2F0D4C",
"p  c #032559",
"a  c #122C5B",
"s  c #2C2C44",
"d  c #263547",
"f  c #36374C",
"g  c #36364D",
"h  c #332857",
"j  c #383952",
"k  c #0D2968",
"l  c #043569",
"z  c #043372",
"x  c #2D296B",
"c  c #540441",
"v  c #470758",
"b  c #520D53",
"n  c #78064A",
"m  c #71104F",
"M  c #66025C",
"N  c #522E4E",
"B  c #762A4F",
"V  c #4E146D",
"C  c #6F106C",
"Z  c #4E2B6A",
"A  c #7A3E7B",
"S  c #37435C",
"D  c #0B4379",
"F  c #2D4F6D",
"G  c #2B6878",
"H  c #4F4D52",
"J  c #494858",
"K  c #6B5456",
"L  c #566649",
"P  c #4F5670",
"I  c #695A65",
"U  c #6E676D",
"Y  c #862539",
"T  c #972C3C",
"R  c #E83B3F",
"E  c #90532F",
"W  c #B16A33",
"Q  c #FA593E",
"!  c #D0773A",
"~  c #F47339",
"^  c #9B0659",
"/  c #8E1255",
"(  c #AF0F59",
")  c #872B56",
"_  c #B0354A",
"`  c #980F6D",
"'  c #B30D6A",
"]  c #953573",
"[  c #B43770",
"{  c #E21C5C",
"}  c #CF2E53",
"|  c #EF3159",
" . c #FA3758",
".. c #D80D6F",
"X. c #C50878",
"o. c #EF0F72",
"O. c #EA1877",
"+. c #CD306E",
"@. c #F02C68",
"#. c #9A6855",
"$. c #B14675",
"%. c #8F716E",
"&. c #AC746F",
"*. c #D45550",
"=. c #F54D4F",
"-. c #C37741",
";. c #F46F4D",
":. c #CA4A6B",
">. c #F6486D",
",. c #C96D6D",
"<. c #F2766E",
"1. c #639973",
"2. c #FC962B",
"3. c #F89138",
"4. c #FBB22D",
"5. c #918979",
"6. c #AD9073",
"7. c #80BD73",
"8. c #AEAE70",
"9. c #D49655",
"0. c #EF964B",
"q. c #FBA756",
"w. c #FCAC52",
"e. c #D19F68",
"r. c #F49572",
"t. c #FAB669",
"y. c #F4B171",
"u. c #94CE70",
"i. c #AAE47B",
"p. c #69138C",
"a. c #72158B",
"s. c #53339A",
"d. c #773090",
"f. c #791DA3",
"g. c #7334A4",
"h. c #084A8F",
"j. c #2D518D",
"k. c #12629C",
"l. c #396289",
"z. c #0051A5",
"x. c #0153B3",
"c. c #0B5BBB",
"v. c #3150AC",
"b. c #0E69B2",
"n. c #3275B6",
"m. c #4B5093",
"M. c #764E8F",
"N. c #5E709B",
"B. c #6D7588",
"V. c #4555A4",
"C. c #5051AB",
"Z. c #7254AF",
"A. c #4E70AC",
"S. c #025CC3",
"D. c #0468C7",
"F. c #0A76CC",
"G. c #3C6DCA",
"H. c #9A1D93",
"J. c #913594",
"K. c #A9388C",
"L. c #A43796",
"P. c #F41A82",
"I. c #D82F95",
"U. c #EE318E",
"Y. c #F13994",
"T. c #864B8B",
"R. c #AE5596",
"E. c #906D8B",
"W. c #B16E92",
"Q. c #954AAF",
"!. c #916CAC",
"~. c #F14C94",
"^. c #CE6E87",
"/. c #ED7191",
"(. c #F45DA7",
"). c #D579B1",
"_. c #EC6FAD",
"`. c #1D82A5",
"'. c #2C86AE",
"]. c #529595",
"[. c #779097",
"{. c #69B19B",
"}. c #5392AD",
"|. c #6E8EB1",
" X c #56C1B3",
".X c #71CBAE",
"XX c #1083D1",
"oX c #2E94CE",
"OX c #35B4CC",
"+X c #0187E2",
"@X c #0F95E5",
"#X c #0195E8",
"$X c #2F9CEA",
"%X c #07A9F3",
"&X c #1FBAFD",
"*X c #2BB2F4",
"=X c #5E9BD4",
"-X c #73A9D5",
";X c #4FA8E7",
":X c #6DB3E9",
">X c #36C6FA",
",X c #63CBD8",
"<X c #6FCDF4",
"1X c #67D4FB",
"2X c #91978F",
"3X c #A6918A",
"4X c #92B591",
"5X c #ADAE8B",
"6X c #9397AA",
"7X c #AF8CAE",
"8X c #8FB1AD",
"9X c #A9B5B7",
"0X c #F1868B",
"qX c #F28F90",
"wX c #D1AE8C",
"eX c #C4AD98",
"rX c #F4AC91",
"tX c #D28AA5",
"yX c #F492AF",
"uX c #F69AB9",
"iX c #F5B0AB",
"pX c #A5D597",
"aX c #CFD29C",
"sX c #FCC58A",
"dX c #EFC495",
"fX c #F8C899",
"gX c #CDD0B0",
"hX c #F2CAAB",
"jX c #FCD4A6",
"kX c #FCDAB4",
"lX c #FCE0BC",
"zX c #8AB2CC",
"xX c #B4B2CF",
"cX c #8EB8E6",
"vX c #F793C6",
"bX c #DDADCD",
"nX c #F5B6CC",
"mX c #96C9D4",
"MX c #B9CDCF",
"NX c #88D6F0",
"BX c #AAD0EB",
"VX c #A5E4FC",
"CX c #C6C3C3",
"ZX c #F9C5DA",
"AX c #D7E7C6",
"SX c #FDECD9",
"DX c #D7EDF5",
"FX c #FBE6E8",
"GX c #F0ECEE",
"HX c #FDF3E7",
"JX c #EAF5F9",
"KX c #FCF5F4",
"LX c #FDFEFD",
/* pixels */
"                                                                                                                                ",
"                                                                                                                                ",
"                                                                                                                                ",
"                                                                                                                                ",
"                                                                                                                                ",
"                                                                                                                                ",
"                                                                                                                                ",
"                                                                                                                                ",
"                                                                                                                                ",
"                                                                                                                                ",
"                                                                                                                                ",
"                                            : j g g g g g j :             $ g j j j j j j s                                     ",
"                                          : 2XAXGXGXGXDXCXdX#.X       * J U rXdXdXdXdXdXdXwXI j                                 ",
"                                          U pXzXLXLXJX:XB.2.2.+     3 I r.rXkXkXkXkXkXkXjXt.q.9.J $                             ",
"                                  + %   s 4X X<XLXKXcX+XB.2.2.+   3 &.<.iXFXSXkXKXLXLXLXLXHXrX0.y.U $                           ",
"                              @ 0 +     2X,XOXCXLXuX|.+XB.2.~ + $ &.>.vXLXkX5XmXVXVXVXVXDXLXLXhX8.wXK @                         ",
"                            @ J 4     J -X$X3XiXnXe..X+XM.3.Q 2 I ~.vXKXfX2X@X#X#X#X#X#X$XDXJXNXgXw.0.0                         ",
"                            0 K     * |.$X[.r.ZX,.u.,X+XM.=.=.K ,.(.KXsX6.F.z.z l l z D.F.oX<XVXLXsX2.W &                       ",
"                            , X     S ;X}.0.iX/.u.OX<X+XM. .) W.U.ZXjX9.n.z.$ - v <   p h.D.;XLXLXfX2.~ 6                       ",
"                                  $ A.oX9.fX~.+.OX&X<X+XM.( N _.(.FXq.5.D.p 1 ` ` / 1   $ z.$XJXLXfX2.Q 6                       ",
"                                  J mX5.t.qXo.Z #X&X<X@XC.v g qXiXnX6.n.z.1 ' / & % #     h.*XJXHXt.~  .8                       ",
"        @ @                     $ |.|.0.iXU.( a #X&X<X;XZ.b g y.<.2X'.c.Z } ^ .     >     z.*XGXkXrXQ | c                       ",
"                                S -X6.sX_...7 p #X&XNXXXM.M g qX,.n.D.T.}  .n           @ j.5XsXSXiX=.@.c                       ",
"                              $ 6X5Xw.uXO.c @ p #X;XcXF.T.M s E.l.z.P _ ~  .n           * -.3.kXZX>. ...7                       ",
"                              J 9X0.rX~.' y k p @XcX:XN.+.M   $ i i i v -.=.n         $ %.3.jXFX~.o.o.^ #                       ",
"                            3 xX5Xt.uXo.m h.p p #X*X7X=.{ v - @ ) J.f.f.J.0.q       @ U 0.rXFX(.' ` ..^ 7                       ",
"                            P 9X3.iXU.( k D.; p #X}.:.@.^ v v @ %.&.[ [ [ *.w       J q.t.HXvX..V s.J.*.0                       ",
"                          : 6X9.rXyX{ 8 h.D.< a n.A.K.P.I.H.s.u * O O O > > X     g e.q.jXuX..c h.v.[ 2.e                       ",
"                          I y.e.hX>.Y z c.h ^ N V.B.;._.~.Z.v.=           &     g wXq.rXqXY.B l F.) ~ 3.9                       ",
"                        : 5X3XxX<._ h c.k ^ { h n.9.qXY.Q.G.a.<         , 5   : 6.q.rXU.U.W.F F.x *.4.E #                       ",
"                        U .X;XrX=.q v.z / @.} h &.rX/.U.!.a.` 1       > 5 . 3 6.q.rXY.P.).F k.j.( 0.! >                         ",
"                      g 8X$XMX=.T V x m @.| 5 g wXjXuXxXQ.X.X.1     % 5 X : 6.9.rX(.O.).P h.j.( ~ ~ 5                           ",
"                    $ 2X X:Xr.R h k m @.| 8   P hXlXJX;Xg.o.{ 1     & X   5.e.6._.P.).P l k./ ~ ;.m                             ",
"                    J 8X;XhX=.q $ $ m / 8   3 8.kXFXcX+Xs.^ / >         H 5X5.).P.).N.p D / =.;./ %                             ",
"                    U <XMXr.{ ' 3X3X3X3X2X6X4XpXFXnXNX%X`.h.k.}.6XN   s 5X5.7XU._.N.a k.C | =./ #                               ",
"                  3 zX-Xt. .U.rXt.t.t.t.4X.X>X<XnXFXNX&X&X&X&X<XiX` & 2X2X7XY._.|.u P Z }  ./ %       & #                       ",
"                  s zX9.=.Y.iXlXHXHXHXMXeXGXDXJXKXLXBXMXDXDXDXrX@.7 P 6X7XY.~.2Xu P h (  .( &       % 7 #                       ",
"                  s wX&.Q.bXkXLXLXLXBXMXKXLXHXjXKXZXvXlXKXKXsX>.' = F N.I.U.6Xh.F J / @.( >   ; $   & %                         ",
"                  s 9Xn.7XR.=X:X:X|.}.1X1XmXr.R._.U.I.-X-X6XE.[ n a m.] O.!.c.j.H n O...<   ; a $                               ",
"                  s zX5.E.XX#X#Xb.G '.F.F.&.] H.P.o.M.S.V.v.v.C % j A X.E.b.h.H m O...1   ; a $                                 ",
"                  * j N x D D l u d k x N 9 i M H.5.'.V.B p y > & N ` %.].h.9 c ( ( 7     $ @                                   ",
"                    . m C C v - V C C m >     u ].{.c.T.Y     # V T.U u.1.) r L L S z z z D G B.B.B.B.9                         ",
"                    $ ,. ._ B J.L.L.+.' V i - d {.b.C.$.d.1   : !.!.7.u.%.&.4XOXoXXX%X%X%X%X>X>X>X1XbX+.>                       ",
"                    $ U _ 6 Y T T T T Y < V i d b.v.$.v.g.M   Z Z.{.i.3X^.gX<X<X:X:X1X1X<X<X<X1X<X7XO.o.c                       ",
"                      . 0 X     & >       $ w a v.+.T.c.g.M * l.].pXtX~.FXKXnXSXLXLXLXHXjXjXkXKXiX;.@.o.c                       ",
"                      o o     # 7 & @   $ K 0 p ] :.v.S.g.M g MXi.gXU.U.(./.<.0X0X0X0X0X0X/._.tX8.0.@.o.c                       ",
"                            @     ; $ @ I #.. 2 $.v.S.S.g.M g aXaX!.v.C.J.V.V.V.V.V.v.v.m.m.d.N.oX2X .O.8                       ",
"                          j 3         J #.,   2 A.F.x.x.d.n j gX!.F.XXm.v.x.x.x.x.x.x.x.x.v.j.c.+X[.3.=.6                       ",
"                        @ : @       : U ,     $ y y t t ) X.N P t u y i t t t = t t t = t t t y u s W 3.6                       ",
"                      & %           @ @       9 +.X.X.' +.@.` % m ` a.p.p.p.V v p.p.v V a.p.p.p.p.p.] 3.e                       ",
"                                              H r.=.o.o.=.0.} 1 5.;.:.L.L.d.b ] L.V / K.J.J.L.d.L.L.K.;.e                       ",
"                                              : e 0 6 q W r 0 % g r E 6 6 8 9 6 6 & 5 6 2 9 N , 6 6 6 6 O                       ",
"                                            1 %     . 0 +       % 0 o   < 1 @     # @ >   $ ;       @                           ",
"                                            &       0 O       $ 0 *   > 7 .                         @                           ",
"                                                  . o         $ *     % #                                                       ",
"                                                                                                                                ",
"                                                                                                                                ",
"                                                                                                                                ",
"                                                                                                                                ",
"                                                                                                                                ",
"                                                                                                                                ",
"                                                                                                                                ",
"                                                                                                                                ",
"                                                                                                                                "
};
