/* XPM */
static char *_d8d16c9865f4b53eb7ed1348a4bed597efs1vSOV08oWVmV[] = {
/* columns rows colors chars-per-pixel */
"64 64 64 1 ",
"  c #010101",
". c #080707",
"X c #090807",
"o c #0C0A09",
"O c #110E0D",
"+ c #14110F",
"@ c #161211",
"# c #1B1615",
"$ c #1C1817",
"% c #1F1B19",
"& c #221D1B",
"* c #26211E",
"= c #28211F",
"- c #272120",
"; c #2B2322",
": c #2F2825",
"> c #312927",
", c #342C29",
"< c #382F2C",
"1 c #3B312E",
"2 c #3D3330",
"3 c #413632",
"4 c #443A36",
"5 c #4B3F3B",
"6 c #4D413D",
"7 c #50433F",
"8 c #544743",
"9 c #554944",
"0 c #594B46",
"q c #5D4D49",
"w c #5F504B",
"e c #604F4A",
"r c #61514B",
"t c #63524E",
"y c #63544F",
"u c #64544E",
"i c #645550",
"p c #685751",
"a c #6B5953",
"s c #6C5B55",
"d c #6F5E57",
"f c #6F5F58",
"g c #705D57",
"h c #715F5A",
"j c #72615B",
"k c #74625B",
"l c #73625C",
"z c #75625C",
"x c #78655F",
"c c #7E6A63",
"v c #7E6A64",
"b c #806B65",
"n c #836E67",
"m c #857068",
"M c #88736B",
"N c #8A756D",
"B c #8C766E",
"V c #8D786F",
"C c #947D75",
"Z c #9B827A",
"A c #9E857D",
"S c #A0867E",
"D c #A1887F",
"F c #A18880",
/* pixels */
"              ............             . .                      ",
" *4444444444@ @@@@@@@@@@@@ @222222222222 .@@@@@@@@@@@@ &111111& ",
" pnnnnnnnnnn2oDDSSDDDDDDDD.2nnnnnnnnnnnno%DDDDDDDDDDDA dnnnnnnq ",
" pnnnnnnnnnn2oDDSSDDDDDDDD.2nnnnnnnnnnnno%DDDDDDDDDDDA dnnnnnnq ",
" pnnnnnnnnnn2oDDSDDDDDDDDD.2nnnnnnnnnnnno%DDDDDDDDDDDA dnnnnnnq ",
" pnnnnnnnnnn2oDDDDDDDDDDDD.2nnnnnnnnnnnno%DDDDDDDDDDDA dnnnnnnq ",
" pnnnnnnnnnn2oDDDDDDDDDDDD.2nnnnnnnnnnnno%DDDDDDDDDDDA dnnnnnnq ",
" pnnnnnnnnnn2oDDDDDDDDDDDD.2nnnnnnnnnnnno%DDDDDDDDDDDA dnnnnnnq ",
"                                                                ",
" 3zzzz+&wwwwqwttttt@ -----&&----- X,,,,,$;,,,,> wmmmmmxbnnnnnn6 ",
" hDDDD%2nnnnnnnnnnn&.DDDDDDDDDDDD &nnnnnnnnnnnv NDDDDDDDDDDDDDn ",
" hDDDD%2nnnnnnnnnnn&.DDDDDDDDDDDD &nnnnnnnnnnnv NDDDDDDDDDDDDDn ",
" hDDDD%2nnnnnnnnnnn&.DDDDDDDDDDDD &nnnnnnnnnnnv NDDDDDDDDDDDDDn ",
" hDDDD%2nnnnnnnnnnn&.DDDDDDDDDDDD &nnnnnnnnnnnv NDDDDDDDDDDDDDn ",
" hDDDD%2nnnnnnnnnnn&.DDDDDDDDDDDD &nnnnnnnnnnnv NDDDDDDDDDDDDDn ",
" 9CCCC@;xxxxzhhhhhh# 555551466666 O555551455555 iVVVVVMBBBBBBB0 ",
"                                                                ",
" 0bbbbcbbbbb>*ZZZZZZZZZZZZ%:vvvvvcvvvvvv.0ZZZZZZZZZZZC qcccccc6 ",
" pnnnnnnnnnn2>DDDDDDDDDDDD&<nnnnnnnnnnnnoiDDDDDDDDDDDS annnnnnq ",
" pnnnnnnnnnn2>DDDDDDDDDDDD&<nnnnnnnnnnnnoiDDDDDDDDDDDS annnnnnq ",
" pnnnnnnnnnn2>DDDDDDDDDDDD&<nnnnnnnnnnnnoiDDDDDDDDDDDS annnnnnq ",
" pnnnnnnnnnn2>DDDDDDDDDDDD&<nnnnnnnnnnnnoiDDDDDDDDDDDS annnnnnq ",
" pnnnnnnnnnn2>DDDDDDDDDDDD&<nnnnnnnnnnnnoiDDDDDDDDDDDS annnnnnq ",
" >7777567777#@tttttqwiiiiiO$777775888888.>yyyyywlxxxxd 1qqqqqq> ",
" .oooo  ooooooooooo  oooooooooooo .oooooooooooo X+++++oooooooo. ",
" hDDDD%2nnnnnnnnnnn*3DDDDDDDDDDDD@wDDDDDDDDDDDD jnnnnnnnnnnnnnp ",
" hDDDD%2nnnnnnnnnnn*3DDDDDDDDDDDD@wDDDDDDDDDDDD jnnnnnnnnnnnnnp ",
" hDDDD%2nnnnnnnnnnn*3DDDDDDDDDDDD@wDDDDDDDDDDDD jnnnnnnnnnnnnnp ",
" hDDDD%2nnnnnnnnnnn*3DDDDDDDDDDDD@wDDDDDDDDDDDD jnnnnnnnnnnnnnp ",
" hDDDD%2nnnnnnnnnnn*3DDDDDDDDDDDD@wDDDDDDDDDDDD jnnnnnnnnnnnnnp ",
" hDDDD%2nnnnnnnnnnn*3DDDDDDDDDDDD@wDDDDDDDDDDDD jnnnnnnnnnnnnnp ",
" &3334o@3333,;>>>>>o@333331133333.$33333<133332 &>>>>>-;;;;;;;# ",
" .@@@#o@====. OOOOO..OOOOO  ooooo Xooooo  OOOOO.oOOOOo &<<<<<<% ",
" 6DDDDDDDDDD;#nnnnnnnnnnnn.@DDDDDDDDDDDD &nnnnnnnnnnnk nDDDDDDh ",
" 6DDDDDDDDDD;#nnnnnnnnnnnn.@DDDDDDDFDDDD &nnnnnnnnnnnk nDDDDDDh ",
" 6DDDDDDDDDD;#nnnnnnnnnnnn.@DDDDDDFFDDDD &nnnnnnnnnnnk nDDDDDDh ",
" 6DDDDDDDDDD;#nnnnnnnnnnnn.@DDDDDDDDDDDD &nnnnnnnnnnnk nSDDDDDh ",
" 6DDDDDDDDDD;#nnnnnnnnnnnn.@DDDDDDDDDDDD &nnnnnnnnnnnk nSDDDDDh ",
" 6DDDDDDDDDD;#nnnnnnnnnnnn.@DDDDDDDDDDDD &nnnnnnnnnnnk nDDDDDDh ",
"              .....  .....  ooooo                      ooooooo. ",
" 1iiii+o>>>>>>11111oO44444;<66666 .&&&&&O#&&&&% 4jjjjjyhjjjjjj2 ",
" zDDDD*<nnnnnnnnnnn&;DDDDDDDDDDDD #nnnnnnnnnnnc MDDDDDDDDDDDDDn ",
" zDDDD*<nnnnnnnnnnn&;DDDDDDDDDDDD #nnnnnnnnnnnc MDDDDDDDDDDDDDn ",
" zDDDD*<nnnnnnnnnnn&;DDDDDDDDDDDD #nnnnnnnnnnnc MDDDDDDDDDDDDDn ",
" zDDDD*<nnnnnnnnnnn&;DDDDDDDDDDDD #nnnnnnnnnnnc MDDDDDDDDDDDDDn ",
" zDDDD*<nnnnnnnnnnn&;DDDDDDDDDDDD #nnnnnnnnnnnc MDDDDDDDDDDDDDn ",
" iAAAA&;ggggaqttttt@%zzzzzfnmmmmm @hhhhhueqqqq0 jZZZZZZZZZZZZZa ",
"                                                                ",
" -sssswisssso 444442244444 oaaaaa7raaaaa.#22222>12222> qBBBBBB8 ",
" 6DDDDDDDDDD#Xnnnnnnnnnnnn.+DDDDDDDDDDDDX1nnnnnnnnnnnj cDDDDDDh ",
" 6DDDDDDDDDD#Xnnnnnnnnnnnn.+DDDDDDDDDDDDX1nnnnnnnnnnnj cDDDDDDh ",
" 6DDDDDDDDDD#Xnnnnnnnnnnnn.+DDDDDDDDDDDDX1nnnnnnnnnnnj cDDDDDDh ",
" 6DDDDDDDDDD#Xnnnnnnnnnnnn.+DDDDDDDDDDDDX1nnnnnnnnnnnj cDDDDDDh ",
" 6DDDDDDDDDD#Xnnnnnnnnnnnn.+DDDDDDDDDDDDX1nnnnnnnnnnnj cDDDDDDh ",
" @1111*&----. :::::&$&&&&& .11111&*----- @:::::&22222> 6nnnnnn4 ",
"                                                                ",
" jFFFF%1nnnnnnnnnnn&.DDDDDDDDDDDD Onnnnnnnnnnnc mFFFFFFFFFFFFFv ",
" zDDDD%2nnnnnnnnnnn&.DDDDDDDDDDDD Onnnnnnnnnnnc MDDDDDDDDDDDDDv ",
" zDDDD%2nnnnnnnnnnn&.DDDDDDDDDDDD Onnnnnnnnnnnc MDDDDDDDDDDDDDn ",
" zDDDD%2nnnnnnnnnnn&.DDDDDDDDDDDD Onnnnnnnnnnnc MDDDDDDDDDDDDDn ",
" zDDDD%2nnnnnnnnnnn&.DDDDDDDDDDDD Onnnnnnnnnnnc MDDDDDDDDDDDDDn ",
" zDDDD%2nnnnnnnnnnn&.DDDDDDDDDDDD Onnnnnnnnnnnc MDDDDDDDDDDDDDn ",
" ;6666o@11111111111o oooooooooooo  XXXXXXXXXXX. >8888888888888> ",
"o.....                                                          "
};
